<svg xmlns="http://www.w3.org/2000/svg" viewBox="0 0 533.5 544.3" width="50" height="50">
  <path fill="#4285F4" d="M533.5 278.4c0-18.7-1.5-36.7-4.3-54.2H272v102.7h146.9c-6.3 33.8-25.2 62.5-53.6 81.7v67h86.7c50.8-46.8 80.5-115.7 80.5-197.2z"/>
  <path fill="#34A853" d="M272 544.3c72.9 0 134.1-24.1 178.8-65.5l-86.7-67c-24.1 16.2-55 25.7-92.1 25.7-70.9 0-131-47.8-152.4-112.2h-89.6v70.5c44.8 88 136.8 149.5 242 149.5z"/>
  <path fill="#FBBC05" d="M119.5 326.3c-10.4-31-10.4-64.9 0-95.9v-70.5h-89.6c-36.5 71.6-36.5 156.1 0 227.7l89.6-61.3z"/>
  <path fill="#EA4335" d="M272 107.2c38.5-.6 75.6 14.1 103.9 41.7l77.7-77.7C404.9 24.8 343.6 0 272 0 166.8 0 74.8 61.5 30 149.5l89.6 70.5c21.4-64.4 81.5-112.8 152.4-112.8z"/>
</svg>
